<svg width="36" height="32" viewBox="0 0 36 32" fill="none" xmlns="http://www.w3.org/2000/svg">
<path d="M10.1739 17.0896C11.6646 17.6248 12.8199 18.5042 13.6398 19.7276C14.4596 20.951 14.8696 22.4421 14.8696 24.2007C14.8696 26.4946 14.1615 28.368 12.7453 29.8208C11.3292 31.2736 9.57764 32 7.49068 32C5.32919 32 3.54037 31.2736 2.12422 29.8208C0.708074 28.2915 0 26.4182 0 24.2007C0 23.1302 0.111801 22.0597 0.335404 20.9892C0.63354 19.8423 1.19255 18.1983 2.01242 16.0573L7.26708 0L14.3106 0L10.1739 17.0896ZM31.3043 17.0896C32.795 17.6248 33.9503 18.5042 34.7702 19.7276C35.5901 20.951 36 22.4421 36 24.2007C36 26.4946 35.2919 28.368 33.8758 29.8208C32.4596 31.2736 30.7081 32 28.6211 32C26.4596 32 24.6708 31.2736 23.2547 29.8208C21.8385 28.2915 21.1304 26.4182 21.1304 24.2007C21.1304 23.1302 21.2422 22.0597 21.4658 20.9892C21.764 19.8423 22.323 18.1983 23.1429 16.0573L28.3975 0L35.441 0L31.3043 17.0896Z" fill="#FF6112"/>
</svg>
