<svg width="16" height="16" viewBox="0 0 16 16" fill="none" xmlns="http://www.w3.org/2000/svg">
<path d="M12.1276 15.3898C11.948 15.3898 11.7693 15.3347 11.6156 15.2249L8 12.632L4.38444 15.2249C4.07644 15.4453 3.66311 15.4453 3.35689 15.2213C3.05067 14.9995 2.92178 14.6058 3.03644 14.2462L4.38489 9.89421L0.801777 7.36932C0.497333 7.14488 0.370666 6.75021 0.48711 6.39021C0.604444 6.0311 0.938666 5.7871 1.31644 5.78443L5.75422 5.77777L7.16711 1.53377C7.28622 1.17421 7.62178 0.932434 8 0.932434C8.37822 0.932434 8.71378 1.17466 8.83333 1.53377L10.2222 5.77777L14.6827 5.78443C15.0618 5.7871 15.3964 6.03155 15.5124 6.39021C15.6293 6.75021 15.5027 7.14488 15.1978 7.36932L11.6147 9.89421L12.9631 14.2462C13.0787 14.6058 12.9484 14.9995 12.6431 15.2213C12.4889 15.3342 12.3084 15.3898 12.1276 15.3898Z" fill="#F9B41C"/>
</svg>
