<svg width="40" height="39" viewBox="0 0 40 39" fill="none" xmlns="http://www.w3.org/2000/svg">
<path d="M19.6767 5.06323C14.458 5.06323 10.2256 9.22484 10.2256 14.3594C10.2256 19.4925 14.4566 23.6555 19.6767 23.6555C24.8954 23.6555 29.1278 19.4939 29.1278 14.3594C29.1278 9.22484 24.8968 5.06323 19.6767 5.06323ZM19.6767 21.2355C15.8149 21.2355 12.6845 18.1565 12.6845 14.358C12.6845 10.5595 15.8149 7.48045 19.6767 7.48045C23.5385 7.48045 26.6689 10.5595 26.6689 14.358C26.6689 18.1578 23.5385 21.2355 19.6767 21.2355Z" fill="white"/>
<path d="M7.0646 34.0069C6.56585 33.8726 6.16881 33.7027 5.87207 33.4971L6.45022 32.3707C6.74 32.5598 7.08689 32.7119 7.49229 32.827C7.8977 32.9421 8.29753 32.9983 8.69179 32.9983C9.59176 32.9983 10.0417 32.7654 10.0417 32.2995C10.0417 32.0789 9.9275 31.924 9.69764 31.8377C9.46916 31.7513 9.10137 31.6678 8.59427 31.5883C8.06348 31.5088 7.63161 31.4184 7.29865 31.3156C6.96569 31.2128 6.67591 31.0333 6.43072 30.7757C6.18553 30.5194 6.06293 30.1618 6.06293 29.7027C6.06293 29.1026 6.31788 28.6229 6.82777 28.2626C7.33765 27.9035 8.02726 27.7227 8.89379 27.7227C9.33542 27.7227 9.77704 27.772 10.2187 27.8706C10.6603 27.9693 11.0225 28.1022 11.3039 28.268L10.7258 29.3944C10.1797 29.0779 9.56529 28.9203 8.88265 28.9203C8.44102 28.9203 8.10528 28.9861 7.8768 29.1163C7.64833 29.2464 7.53269 29.4191 7.53269 29.6315C7.53269 29.8686 7.65529 30.0371 7.90048 30.1358C8.14568 30.2344 8.52461 30.3276 9.03868 30.4139C9.55275 30.4934 9.97487 30.5839 10.3037 30.6866C10.6324 30.7894 10.9166 30.9634 11.1535 31.2087C11.3903 31.454 11.5087 31.8007 11.5087 32.2515C11.5087 32.8435 11.2468 33.3176 10.7258 33.6739C10.2033 34.0302 9.49284 34.2069 8.59288 34.2069C8.07323 34.2083 7.56195 34.1412 7.0646 34.0069Z" fill="white"/>
<path d="M12.5717 27.7966H14.0777V34.1261H12.5717V27.7966Z" fill="white"/>
<path d="M19.2964 27.7253V29.1354C19.1682 29.1121 19.0512 29.0998 18.9467 29.0998C18.3602 29.0998 17.9018 29.2683 17.5731 29.604C17.2429 29.9397 17.0785 30.4235 17.0785 31.0565V34.126H15.5725V27.7966H17.0061V28.7216C17.4407 28.057 18.2028 27.7253 19.2964 27.7253Z" fill="white"/>
<path d="M22.8197 31.4114L21.6982 32.4542V34.126H20.1922V25.8809H21.6982V30.6413L24.8188 27.7965H26.6271L23.9397 30.4522L26.8807 34.1273H25.0487L22.8197 31.4114Z" fill="white"/>
<path d="M32.13 28.394C32.6315 28.8408 32.8837 29.5136 32.8837 30.4152V34.126H31.4613V33.3559C31.276 33.6327 31.0127 33.8437 30.6714 33.9904C30.3301 34.137 29.9177 34.2096 29.4357 34.2096C28.9537 34.2096 28.5315 34.1288 28.1707 33.9671C27.8085 33.8054 27.5299 33.5793 27.3334 33.2915C27.137 33.0037 27.0381 32.6776 27.0381 32.3131C27.0381 31.7444 27.2526 31.2881 27.6831 30.9442C28.1136 30.6002 28.7893 30.4289 29.7143 30.4289H31.3777V30.3344C31.3777 29.8918 31.2426 29.552 30.9737 29.3149C30.7048 29.0778 30.305 28.9586 29.7742 28.9586C29.412 28.9586 29.0567 29.0134 28.7071 29.1244C28.3574 29.2354 28.062 29.3889 27.821 29.5862L27.2303 28.5078C27.5675 28.2543 27.9729 28.0611 28.4479 27.9268C28.9216 27.7925 29.4245 27.7253 29.9539 27.7253C30.9027 27.7253 31.6271 27.9487 32.13 28.394ZM30.7564 32.8749C31.0489 32.705 31.2565 32.4625 31.3763 32.1459V31.4115H29.8216C28.9537 31.4115 28.5204 31.6924 28.5204 32.2528C28.5204 32.5214 28.6291 32.7352 28.8464 32.8927C29.0637 33.0503 29.3646 33.1298 29.7505 33.1298C30.1267 33.1298 30.4624 33.0449 30.7564 32.8749Z" fill="white"/>
<path d="M12.5717 27.7964H14.0777V34.1258H12.5717V27.7964Z" fill="white"/>
<path d="M13.3254 27.2319C13.8301 27.2319 14.2393 26.8295 14.2393 26.333C14.2393 25.8365 13.8301 25.4341 13.3254 25.4341C12.8207 25.4341 12.4115 25.8365 12.4115 26.333C12.4115 26.8295 12.8207 27.2319 13.3254 27.2319Z" fill="white"/>
</svg>
