<svg width="40" height="40" viewBox="0 0 40 40" fill="none" xmlns="http://www.w3.org/2000/svg">
<g clip-path="url(#clip0_311_2701)">
<path d="M19.9995 6.03088C14.7808 6.03088 10.5484 10.1925 10.5484 15.327C10.5484 20.4602 14.7794 24.6232 19.9995 24.6232C25.2182 24.6232 29.4505 20.4615 29.4505 15.327C29.4505 10.1925 25.2196 6.03088 19.9995 6.03088ZM19.9995 22.2032C16.1377 22.2032 13.0073 19.1241 13.0073 15.3256C13.0073 11.5272 16.1377 8.4481 19.9995 8.4481C23.8613 8.4481 26.9916 11.5272 26.9916 15.3256C26.9916 19.1255 23.8613 22.2032 19.9995 22.2032Z" fill="#FF6112"/>
<path d="M7.38735 34.9746C6.88861 34.8404 6.49156 34.6704 6.19482 34.4649L6.77298 33.3385C7.06275 33.5276 7.40964 33.6797 7.81505 33.7948C8.22045 33.9099 8.62028 33.9661 9.01454 33.9661C9.91451 33.9661 10.3645 33.7331 10.3645 33.2672C10.3645 33.0466 10.2503 32.8918 10.0204 32.8055C9.79191 32.7191 9.42413 32.6355 8.91702 32.5561C8.38624 32.4766 7.95436 32.3861 7.6214 32.2834C7.28844 32.1806 6.99867 32.0011 6.75347 31.7435C6.50828 31.4872 6.38568 31.1296 6.38568 30.6705C6.38568 30.0703 6.64063 29.5907 7.15052 29.2303C7.66041 28.8713 8.35001 28.6904 9.21655 28.6904C9.65817 28.6904 10.0998 28.7398 10.5414 28.8384C10.983 28.9371 11.3453 29.07 11.6267 29.2358L11.0485 30.3622C10.5024 30.0457 9.88804 29.8881 9.2054 29.8881C8.76378 29.8881 8.42803 29.9538 8.19955 30.084C7.97108 30.2142 7.85545 30.3869 7.85545 30.5993C7.85545 30.8363 7.97804 31.0049 8.22324 31.1035C8.46843 31.2022 8.84736 31.2954 9.36143 31.3817C9.8755 31.4612 10.2976 31.5516 10.6264 31.6544C10.9552 31.7572 11.2394 31.9312 11.4762 32.1765C11.7131 32.4218 11.8315 32.7685 11.8315 33.2193C11.8315 33.8113 11.5696 34.2854 11.0485 34.6417C10.5261 34.9979 9.8156 35.1747 8.91563 35.1747C8.39599 35.1761 7.8847 35.1089 7.38735 34.9746Z" fill="black"/>
<path d="M12.8945 28.7644H14.4005V35.0938H12.8945V28.7644Z" fill="black"/>
<path d="M19.6191 28.6931V30.1032C19.491 30.0799 19.3739 30.0675 19.2695 30.0675C18.6829 30.0675 18.2246 30.2361 17.8958 30.5718C17.5656 30.9075 17.4012 31.3912 17.4012 32.0243V35.0938H15.8953V28.7644H17.3288V29.6893C17.7635 29.0247 18.5255 28.6931 19.6191 28.6931Z" fill="black"/>
<path d="M23.1424 32.3792L22.0209 33.422V35.0937H20.515V26.8486H22.0209V31.6091L25.1416 28.7643H26.9499L24.2625 31.42L27.2034 35.0951H25.3714L23.1424 32.3792Z" fill="black"/>
<path d="M32.4528 29.3618C32.9543 29.8085 33.2065 30.4814 33.2065 31.383V35.0938H31.7841V34.3237C31.5988 34.6005 31.3355 34.8115 30.9941 34.9581C30.6528 35.1048 30.2405 35.1774 29.7584 35.1774C29.2764 35.1774 28.8543 35.0965 28.4935 34.9348C28.1312 34.7731 27.8526 34.547 27.6562 34.2593C27.4598 33.9715 27.3608 33.6454 27.3608 33.2809C27.3608 32.7122 27.5754 32.2559 28.0059 31.912C28.4363 31.568 29.112 31.3967 30.0371 31.3967H31.7005V31.3022C31.7005 30.8596 31.5653 30.5197 31.2965 30.2827C31.0276 30.0456 30.6278 29.9264 30.097 29.9264C29.7348 29.9264 29.3795 29.9812 29.0298 30.0922C28.6801 30.2032 28.3848 30.3567 28.1438 30.554L27.5531 29.4756C27.8902 29.2221 28.2956 29.0288 28.7707 28.8945C29.2444 28.7603 29.7473 28.6931 30.2767 28.6931C31.2254 28.6931 31.9498 28.9165 32.4528 29.3618ZM31.0791 33.8427C31.3717 33.6728 31.5793 33.4302 31.6991 33.1137V32.3792H30.1443C29.2764 32.3792 28.8431 32.6601 28.8431 33.2206C28.8431 33.4892 28.9518 33.7029 29.1691 33.8605C29.3865 34.0181 29.6874 34.0976 30.0733 34.0976C30.4494 34.0976 30.7852 34.0126 31.0791 33.8427Z" fill="black"/>
<path d="M12.8945 28.7642H14.4005V35.0936H12.8945V28.7642Z" fill="black"/>
<path d="M13.6482 28.1997C14.1529 28.1997 14.5621 27.7972 14.5621 27.3008C14.5621 26.8043 14.1529 26.4019 13.6482 26.4019C13.1434 26.4019 12.7343 26.8043 12.7343 27.3008C12.7343 27.7972 13.1434 28.1997 13.6482 28.1997Z" fill="black"/>
</g>
<defs>
<clipPath id="clip0_311_2701">
<rect width="39.3548" height="38.7097" fill="white" transform="translate(0.322754 0.967651)"/>
</clipPath>
</defs>
</svg>
