<svg width="18" height="11" viewBox="0 0 18 11" fill="none" xmlns="http://www.w3.org/2000/svg">
<path d="M5.50324 0.141238L5.78735 0.425301C5.97562 0.613578 5.97562 0.918856 5.78735 1.10717L2.41524 4.45984H17.5179C17.7841 4.45984 18 4.67572 18 4.94198V5.34377C18 5.61003 17.7841 5.82591 17.5179 5.82591H2.41524L5.78735 9.17858C5.97562 9.36686 5.97562 9.67214 5.78735 9.86045L5.50324 10.1445C5.31497 10.3328 5.00969 10.3328 4.82141 10.1445L0.141207 5.48379C-0.0470695 5.29552 -0.0470695 4.99024 0.141207 4.80192L4.82141 0.141238C5.00969 -0.0470793 5.31497 -0.0470793 5.50324 0.141238Z" fill="black"/>
</svg>
