<svg width="24" height="24" viewBox="0 0 24 24" fill="none" xmlns="http://www.w3.org/2000/svg">
<path d="M16.2301 19.3126H7.79257C7.32316 19.3125 6.85997 19.2052 6.43833 18.9989C6.01669 18.7926 5.64775 18.4927 5.35963 18.1221C5.07152 17.7515 4.87184 17.32 4.77584 16.8605C4.67984 16.401 4.69005 15.9257 4.80569 15.4707L6.51569 8.4901C6.54649 8.3653 6.61911 8.2548 6.72145 8.17702C6.8238 8.09924 6.9497 8.05886 7.07819 8.0626H16.5001C16.6241 8.05692 16.7466 8.09247 16.8484 8.16369C16.9501 8.23492 17.0254 8.33782 17.0626 8.45635L19.1888 15.2964C19.3342 15.7609 19.3677 16.2533 19.2865 16.7333C19.2054 17.2132 19.0119 17.6672 18.7219 18.0582C18.4367 18.4509 18.0617 18.7696 17.6282 18.9878C17.1947 19.206 16.7154 19.3174 16.2301 19.3126ZM7.50007 9.1876L5.87444 15.7407C5.80205 16.0299 5.79625 16.3316 5.85748 16.6233C5.9187 16.915 6.04536 17.189 6.22789 17.4246C6.41043 17.6602 6.64408 17.8513 6.91122 17.9835C7.17836 18.1157 7.47203 18.1855 7.77007 18.1876H16.2076C16.5137 18.1881 16.8156 18.116 17.0884 17.9771C17.3612 17.8382 17.5972 17.6366 17.7769 17.3889C17.9619 17.1396 18.0853 16.8503 18.1371 16.5443C18.1889 16.2383 18.1677 15.9244 18.0751 15.6282L16.0951 9.1876H7.50007Z" fill="white"/>
<path d="M14.25 12.5625C14.1008 12.5625 13.9577 12.5032 13.8523 12.3977C13.7468 12.2923 13.6875 12.1492 13.6875 12V7.5C13.6875 7.05245 13.5097 6.62322 13.1932 6.30676C12.8768 5.99029 12.4476 5.8125 12 5.8125C11.5524 5.8125 11.1232 5.99029 10.8068 6.30676C10.4903 6.62322 10.3125 7.05245 10.3125 7.5V12C10.3125 12.1492 10.2532 12.2923 10.1477 12.3977C10.0423 12.5032 9.89918 12.5625 9.75 12.5625C9.60082 12.5625 9.45774 12.5032 9.35225 12.3977C9.24676 12.2923 9.1875 12.1492 9.1875 12V7.5C9.1875 6.75408 9.48382 6.03871 10.0113 5.51126C10.5387 4.98382 11.2541 4.6875 12 4.6875C12.7459 4.6875 13.4613 4.98382 13.9887 5.51126C14.5162 6.03871 14.8125 6.75408 14.8125 7.5V12C14.8125 12.1492 14.7532 12.2923 14.6477 12.3977C14.5423 12.5032 14.3992 12.5625 14.25 12.5625Z" fill="white"/>
</svg>
