<svg width="40" height="39" viewBox="0 0 40 39" fill="none" xmlns="http://www.w3.org/2000/svg">
<path d="M31.6684 8.46777H7.68651C6.15882 8.46777 4.91937 9.6869 4.91937 11.1895V27.5202C4.91937 29.0228 6.15882 30.242 7.68651 30.242H31.6684C33.1961 30.242 34.4355 29.0228 34.4355 27.5202V11.1895C34.4355 9.6869 33.1961 8.46777 31.6684 8.46777ZM7.68651 10.2823H31.6684C32.1757 10.2823 32.5907 10.6906 32.5907 11.1895V13.5371C31.3282 14.5861 29.5238 16.032 23.9089 20.4152C22.9346 21.1751 21.0149 23.0066 19.6774 22.9839C18.34 23.0066 16.4145 21.1751 15.446 20.4152C9.83104 16.032 8.02664 14.5861 6.76413 13.5371V11.1895C6.76413 10.6906 7.1792 10.2823 7.68651 10.2823ZM31.6684 28.4275H7.68651C7.1792 28.4275 6.76413 28.0192 6.76413 27.5202V15.8959C8.07852 16.9563 10.1539 18.595 14.2988 21.8328C15.4806 22.7628 17.5675 24.8098 19.6774 24.7984C21.7759 24.8154 23.8454 22.7854 25.0561 21.8328C29.201 18.595 31.2764 16.9563 32.5907 15.8959V27.5202C32.5907 28.0192 32.1757 28.4275 31.6684 28.4275Z" fill="white"/>
</svg>
