<svg width="30" height="23" viewBox="0 0 30 23" fill="none" xmlns="http://www.w3.org/2000/svg">
<path d="M26.9911 0.435425H3.00926C1.48157 0.435425 0.242126 1.65455 0.242126 3.1572V19.4878C0.242126 20.9905 1.48157 22.2096 3.00926 22.2096H26.9911C28.5188 22.2096 29.7583 20.9905 29.7583 19.4878V3.1572C29.7583 1.65455 28.5188 0.435425 26.9911 0.435425ZM3.00926 2.24994H26.9911C27.4984 2.24994 27.9135 2.65821 27.9135 3.1572V5.50473C26.651 6.55375 24.8466 7.99969 19.2316 12.3829C18.2573 13.1427 16.3376 14.9742 15.0002 14.9516C13.6627 14.9742 11.7373 13.1427 10.7688 12.3829C5.1538 7.99969 3.34939 6.55375 2.08688 5.50473V3.1572C2.08688 2.65821 2.50196 2.24994 3.00926 2.24994ZM26.9911 20.3951H3.00926C2.50196 20.3951 2.08688 19.9868 2.08688 19.4878V7.8636C3.40127 8.92396 5.47663 10.5627 9.62157 13.8005C10.8034 14.7304 12.8902 16.7774 15.0002 16.7661C17.0986 16.7831 19.1682 14.7531 20.3788 13.8005C24.5238 10.5627 26.5991 8.92396 27.9135 7.8636V19.4878C27.9135 19.9868 27.4984 20.3951 26.9911 20.3951Z" fill="#393938"/>
</svg>
