<svg width="40" height="40" viewBox="0 0 40 40" fill="none" xmlns="http://www.w3.org/2000/svg">
<path d="M20.0002 25.2393C19.08 25.2393 18.334 25.973 18.334 26.8782C18.334 27.7833 19.08 28.5171 20.0002 28.5171C20.9204 28.5171 21.6664 27.7833 21.6664 26.8782C21.6664 25.973 20.9204 25.2393 20.0002 25.2393ZM20.4566 23.8345H19.5045C19.1101 23.8345 18.7904 23.52 18.7904 23.1321V23.1098C18.7904 18.9924 23.3987 19.386 23.3987 16.8229C23.3987 15.6513 22.3418 14.4692 19.9806 14.4692C18.2462 14.4692 17.3464 15.034 16.457 16.1487C16.2244 16.4402 15.7992 16.4996 15.4901 16.2877L14.7085 15.7522C14.3738 15.5228 14.3003 15.0632 14.5511 14.7468C15.8143 13.1531 17.3129 12.1279 19.9806 12.1279C23.094 12.1279 25.779 13.8693 25.779 16.8229C25.779 20.7688 21.1707 20.5602 21.1707 23.1098V23.1321C21.1707 23.52 20.851 23.8345 20.4566 23.8345ZM20.0002 7.67945C27.0591 7.67945 32.854 13.303 32.854 20.3225C32.854 27.305 27.1049 32.9656 20.0002 32.9656C12.9042 32.9656 7.14639 27.3136 7.14639 20.3225C7.14639 13.3452 12.895 7.67945 20.0002 7.67945ZM20.0002 5.8064C11.8501 5.8064 5.24213 12.3084 5.24213 20.3225C5.24213 28.3413 11.8501 34.8387 20.0002 34.8387C28.1503 34.8387 34.7583 28.3413 34.7583 20.3225C34.7583 12.3084 28.1503 5.8064 20.0002 5.8064Z" fill="white"/>
</svg>
