<svg width="30" height="30" viewBox="0 0 30 30" fill="none" xmlns="http://www.w3.org/2000/svg">
<path d="M15.0002 20.2393C14.08 20.2393 13.334 20.973 13.334 21.8782C13.334 22.7833 14.08 23.5171 15.0002 23.5171C15.9204 23.5171 16.6664 22.7833 16.6664 21.8782C16.6664 20.973 15.9204 20.2393 15.0002 20.2393ZM15.4566 18.8345H14.5045C14.1101 18.8345 13.7904 18.52 13.7904 18.1321V18.1098C13.7904 13.9924 18.3987 14.386 18.3987 11.8229C18.3987 10.6513 17.3418 9.46925 14.9806 9.46925C13.2462 9.46925 12.3464 10.034 11.457 11.1487C11.2244 11.4402 10.7992 11.4996 10.4901 11.2877L9.70853 10.7522C9.3738 10.5228 9.30031 10.0632 9.55113 9.74675C10.8143 8.15308 12.3129 7.12794 14.9806 7.12794C18.094 7.12794 20.779 8.86935 20.779 11.8229C20.779 15.7688 16.1707 15.5602 16.1707 18.1098V18.1321C16.1707 18.52 15.851 18.8345 15.4566 18.8345ZM15.0002 2.67945C22.0591 2.67945 27.854 8.30298 27.854 15.3225C27.854 22.305 22.1049 27.9656 15.0002 27.9656C7.90418 27.9656 2.14639 22.3136 2.14639 15.3225C2.14639 8.34524 7.89502 2.67945 15.0002 2.67945ZM15.0002 0.806396C6.85011 0.806396 0.242126 7.30839 0.242126 15.3225C0.242126 23.3413 6.85011 29.8387 15.0002 29.8387C23.1503 29.8387 29.7583 23.3413 29.7583 15.3225C29.7583 7.30839 23.1503 0.806396 15.0002 0.806396Z" fill="#393938"/>
</svg>
