<svg width="50" height="56" viewBox="0 0 50 56" fill="none" xmlns="http://www.w3.org/2000/svg">
<path d="M41.0198 28.1418V51.3252H8.86218V28.1418" stroke="#FF6112" stroke-width="2" stroke-linecap="round" stroke-linejoin="round"/>
<path d="M45.0395 16.5502H4.84241V28.1419H45.0395V16.5502Z" stroke="#FF6112" stroke-width="2" stroke-linecap="round" stroke-linejoin="round"/>
<path d="M24.941 51.3253V16.5502" stroke="#FF6112" stroke-width="2" stroke-linecap="round" stroke-linejoin="round"/>
<path d="M24.941 16.5501H15.8967C14.5641 16.5501 13.2861 15.9395 12.3438 14.8526C11.4014 13.7656 10.8721 12.2914 10.8721 10.7543C10.8721 9.21713 11.4014 7.74293 12.3438 6.656C13.2861 5.56907 14.5641 4.95844 15.8967 4.95844C22.9312 4.95844 24.941 16.5501 24.941 16.5501Z" stroke="#FF6112" stroke-width="2" stroke-linecap="round" stroke-linejoin="round"/>
<path d="M24.941 16.5501H33.9854C35.318 16.5501 36.596 15.9395 37.5383 14.8526C38.4806 13.7656 39.01 12.2914 39.01 10.7543C39.01 9.21713 38.4806 7.74293 37.5383 6.656C36.596 5.56907 35.318 4.95844 33.9854 4.95844C26.9509 4.95844 24.941 16.5501 24.941 16.5501Z" stroke="#FF6112" stroke-width="2" stroke-linecap="round" stroke-linejoin="round"/>
</svg>
