<svg width="160" height="62" viewBox="0 0 160 62" fill="none" xmlns="http://www.w3.org/2000/svg">
<path d="M34.5467 8.41504C24.8085 8.41504 16.9106 16.2938 16.9106 26.0148C16.9106 35.7359 24.8056 43.6147 34.5467 43.6147C44.2878 43.6147 52.1827 35.7359 52.1827 26.0148C52.1827 16.2938 44.2878 8.41504 34.5467 8.41504ZM34.5467 39.0345C27.3398 39.0345 21.5003 33.2041 21.5003 26.0148C21.5003 18.8227 27.3426 12.9952 34.5467 12.9952C41.7536 12.9952 47.5931 18.8256 47.5931 26.0148C47.596 33.2041 41.7536 39.0345 34.5467 39.0345Z" fill="white"/>
<path d="M65.2837 36.7716C63.7701 36.3568 62.5632 35.8333 61.6602 35.201L63.4175 31.7309C64.2947 32.3145 65.3496 32.7836 66.5823 33.1384C67.815 33.4931 69.0276 33.6676 70.223 33.6676C72.955 33.6676 74.3224 32.9496 74.3224 31.5134C74.3224 30.8326 73.9756 30.3577 73.279 30.0887C72.5852 29.8227 71.4672 29.5652 69.9306 29.322C68.3195 29.0789 67.0094 28.7985 65.9975 28.481C64.9855 28.1663 64.1055 27.6113 63.363 26.8188C62.6176 26.0292 62.2478 24.925 62.2478 23.5146C62.2478 21.6636 63.0218 20.1846 64.5727 19.0774C66.1208 17.9703 68.2135 17.4153 70.848 17.4153C72.1896 17.4153 73.5312 17.5669 74.8729 17.873C76.2145 18.1763 77.3124 18.5854 78.1667 19.0975L76.4094 22.5676C74.7496 21.595 72.8834 21.1058 70.8107 21.1058C69.4691 21.1058 68.4514 21.306 67.7548 21.7065C67.0582 22.1099 66.7113 22.6392 66.7113 23.2943C66.7113 24.0238 67.084 24.5416 67.8265 24.8477C68.5718 25.1538 69.7242 25.437 71.2866 25.706C72.849 25.9491 74.1275 26.2295 75.128 26.547C76.1285 26.8646 76.9885 27.3996 77.708 28.1548C78.4276 28.9101 78.7888 29.98 78.7888 31.3675C78.7888 33.1927 77.9947 34.6546 76.4094 35.7503C74.8241 36.846 72.6626 37.3953 69.9306 37.3953C68.3453 37.3924 66.7944 37.1836 65.2837 36.7716Z" fill="white"/>
<path d="M82.0081 17.6326H86.5833V37.1348H82.0081V17.6326Z" fill="white"/>
<path d="M102.428 17.4124V21.7579C102.038 21.6836 101.683 21.6492 101.367 21.6492C99.5869 21.6492 98.1966 22.167 97.1961 23.2027C96.1956 24.2383 95.6939 25.7288 95.6939 27.677V37.1349H91.1187V17.6326H95.4732V20.482C96.7919 18.4365 99.1111 17.4124 102.428 17.4124Z" fill="white"/>
<path d="M113.132 28.7727L109.729 31.9854V37.1349H105.154V11.7307H109.729V26.3982L119.207 17.6326H124.696L116.535 25.8146L125.465 37.1377H119.9L113.132 28.7727Z" fill="white"/>
<path d="M141.404 19.4779C142.929 20.854 143.691 22.9281 143.691 25.706V37.1378H139.374V34.7633C138.812 35.6159 138.012 36.2681 136.977 36.7173C135.94 37.1664 134.69 37.3924 133.228 37.3924C131.763 37.3924 130.481 37.1407 129.386 36.6429C128.288 36.1451 127.44 35.4499 126.844 34.5602C126.244 33.6705 125.946 32.6664 125.946 31.5478C125.946 29.7941 126.6 28.3894 127.904 27.3309C129.209 26.2724 131.264 25.7432 134.071 25.7432H139.122V25.4514C139.122 24.0867 138.712 23.0397 137.895 22.3102C137.078 21.5807 135.862 21.2145 134.254 21.2145C133.156 21.2145 132.075 21.3861 131.015 21.7266C129.954 22.067 129.057 22.5419 128.326 23.1512L126.531 19.827C127.555 19.0488 128.787 18.4509 130.226 18.0361C131.665 17.6213 133.19 17.4153 134.802 17.4153C137.677 17.4124 139.879 18.1019 141.404 19.4779ZM137.233 33.2814C138.124 32.7579 138.752 32.0084 139.116 31.0357V28.7728H134.395C131.76 28.7728 130.441 29.6367 130.441 31.3647C130.441 32.1915 130.771 32.8495 131.43 33.3358C132.09 33.8221 133.004 34.0653 134.174 34.0653C135.323 34.0682 136.341 33.8078 137.233 33.2814Z" fill="white"/>
<path d="M82.0081 17.6323H86.5833V37.1346H82.0081V17.6323Z" fill="white"/>
<path d="M84.2957 15.8931C85.8283 15.8931 87.0707 14.6532 87.0707 13.1238C87.0707 11.5943 85.8283 10.3545 84.2957 10.3545C82.7632 10.3545 81.5208 11.5943 81.5208 13.1238C81.5208 14.6532 82.7632 15.8931 84.2957 15.8931Z" fill="white"/>
<path d="M34.5467 8.41504C24.8085 8.41504 16.9106 16.2938 16.9106 26.0148C16.9106 35.7359 24.8056 43.6147 34.5467 43.6147C44.2878 43.6147 52.1827 35.7359 52.1827 26.0148C52.1827 16.2938 44.2878 8.41504 34.5467 8.41504ZM34.5467 39.0345C27.3398 39.0345 21.5003 33.2041 21.5003 26.0148C21.5003 18.8227 27.3426 12.9952 34.5467 12.9952C41.7536 12.9952 47.5931 18.8256 47.5931 26.0148C47.596 33.2041 41.7536 39.0345 34.5467 39.0345Z" fill="white"/>
<path d="M65.2837 36.7716C63.7701 36.3568 62.5632 35.8333 61.6602 35.201L63.4175 31.7309C64.2947 32.3145 65.3496 32.7836 66.5823 33.1384C67.815 33.4931 69.0276 33.6676 70.223 33.6676C72.955 33.6676 74.3224 32.9496 74.3224 31.5134C74.3224 30.8326 73.9756 30.3577 73.279 30.0887C72.5852 29.8227 71.4672 29.5652 69.9306 29.322C68.3195 29.0789 67.0094 28.7985 65.9975 28.481C64.9855 28.1663 64.1055 27.6113 63.363 26.8188C62.6176 26.0292 62.2478 24.925 62.2478 23.5146C62.2478 21.6636 63.0218 20.1846 64.5727 19.0774C66.1208 17.9703 68.2135 17.4153 70.848 17.4153C72.1896 17.4153 73.5312 17.5669 74.8729 17.873C76.2145 18.1763 77.3124 18.5854 78.1667 19.0975L76.4094 22.5676C74.7496 21.595 72.8834 21.1057 70.8107 21.1057C69.4691 21.1057 68.4514 21.306 67.7548 21.7065C67.0582 22.1099 66.7113 22.6392 66.7113 23.2943C66.7113 24.0238 67.084 24.5416 67.8265 24.8477C68.5718 25.1538 69.7242 25.437 71.2866 25.706C72.849 25.9491 74.1275 26.2295 75.128 26.547C76.1285 26.8646 76.9885 27.3996 77.708 28.1548C78.4276 28.9101 78.7888 29.98 78.7888 31.3675C78.7888 33.1927 77.9947 34.6546 76.4094 35.7503C74.8241 36.846 72.6626 37.3953 69.9306 37.3953C68.3453 37.3924 66.7944 37.1836 65.2837 36.7716Z" fill="white"/>
<path d="M82.0081 17.6326H86.5833V37.1348H82.0081V17.6326Z" fill="white"/>
<path d="M102.428 17.4124V21.7579C102.038 21.6836 101.683 21.6492 101.367 21.6492C99.5869 21.6492 98.1966 22.167 97.1961 23.2027C96.1956 24.2383 95.6939 25.7288 95.6939 27.677V37.1349H91.1187V17.6326H95.4732V20.482C96.7919 18.4365 99.1111 17.4124 102.428 17.4124Z" fill="white"/>
<path d="M113.132 28.7727L109.729 31.9854V37.1349H105.154V11.7307H109.729V26.3982L119.207 17.6326H124.696L116.535 25.8146L125.465 37.1377H119.9L113.132 28.7727Z" fill="white"/>
<path d="M141.404 19.4779C142.929 20.854 143.691 22.9281 143.691 25.706V37.1378H139.374V34.7633C138.812 35.6159 138.012 36.2681 136.977 36.7173C135.94 37.1664 134.69 37.3924 133.228 37.3924C131.763 37.3924 130.481 37.1407 129.386 36.6429C128.288 36.1451 127.44 35.4499 126.844 34.5602C126.244 33.6705 125.946 32.6664 125.946 31.5478C125.946 29.7941 126.6 28.3894 127.904 27.3309C129.209 26.2724 131.264 25.7432 134.071 25.7432H139.122V25.4514C139.122 24.0867 138.712 23.0397 137.895 22.3102C137.078 21.5807 135.862 21.2145 134.254 21.2145C133.156 21.2145 132.075 21.3861 131.015 21.7266C129.954 22.067 129.057 22.5419 128.326 23.1512L126.531 19.827C127.555 19.0488 128.787 18.4509 130.226 18.0361C131.665 17.6213 133.19 17.4153 134.802 17.4153C137.677 17.4124 139.879 18.1019 141.404 19.4779ZM137.233 33.2814C138.124 32.7579 138.752 32.0084 139.116 31.0357V28.7728H134.395C131.76 28.7728 130.441 29.6367 130.441 31.3647C130.441 32.1915 130.771 32.8495 131.43 33.3358C132.09 33.8221 133.004 34.0653 134.174 34.0653C135.323 34.0682 136.341 33.8078 137.233 33.2814Z" fill="white"/>
<path d="M82.0081 17.6326H86.5833V37.1348H82.0081V17.6326Z" fill="white"/>
<path d="M84.2957 15.8933C85.8283 15.8933 87.0707 14.6534 87.0707 13.124C87.0707 11.5946 85.8283 10.3547 84.2957 10.3547C82.7632 10.3547 81.5208 11.5946 81.5208 13.124C81.5208 14.6534 82.7632 15.8933 84.2957 15.8933Z" fill="white"/>
<path d="M70.5671 44.5044L68.8012 49.7769H68.01L66.568 45.5658L65.1261 49.7769H64.3177L62.5518 44.5044H63.3286L64.7563 48.7899L66.2441 44.5044H66.9378L68.3941 48.8128L69.8504 44.5044H70.5671Z" fill="white"/>
<path d="M75.0507 48.0231H71.8056C71.8515 48.375 72.0063 48.6582 72.27 48.8699C72.5337 49.0816 72.8634 49.1903 73.2562 49.1903C73.7349 49.1903 74.119 49.0301 74.4115 48.7068L74.8128 49.1731C74.6322 49.3848 74.4057 49.545 74.1362 49.6566C73.8668 49.7682 73.5658 49.8225 73.2332 49.8225C72.8118 49.8225 72.4363 49.7367 72.1095 49.5622C71.7827 49.3877 71.5304 49.1474 71.3498 48.8355C71.1721 48.5237 71.0803 48.1718 71.0803 47.7799C71.0803 47.3937 71.1663 47.0447 71.3412 46.7328C71.5161 46.421 71.754 46.1778 72.0579 46.0062C72.3617 45.8317 72.7058 45.7458 73.087 45.7458C73.4683 45.7458 73.8094 45.8317 74.1104 46.0062C74.4086 46.1807 74.6437 46.421 74.8128 46.7328C74.9819 47.0447 75.0651 47.3994 75.0651 47.8028C75.0651 47.86 75.0593 47.9315 75.0507 48.0231ZM72.2155 46.6728C71.9805 46.8845 71.8457 47.1591 71.8056 47.5024H74.3713C74.3312 47.1648 74.1936 46.8902 73.9614 46.6785C73.7263 46.4639 73.4368 46.3581 73.0899 46.3581C72.7401 46.3581 72.4477 46.4639 72.2155 46.6728Z" fill="white"/>
<path d="M76.4382 44.1868H77.1635V49.7768H76.4382V44.1868Z" fill="white"/>
<path d="M78.915 44.1868H79.6403V49.7768H78.915V44.1868Z" fill="white"/>
<path d="M84.7373 46.1865C85.0354 46.4812 85.1874 46.9103 85.1874 47.4796V49.7769H84.4621V47.5626C84.4621 47.1764 84.3675 46.8846 84.184 46.69C83.9977 46.4955 83.7311 46.3954 83.3842 46.3954C82.9915 46.3954 82.6819 46.5098 82.4554 46.7387C82.2289 46.9675 82.1171 47.2937 82.1171 47.7228V49.7797H81.3918V45.786H82.0856V46.3896C82.2318 46.1837 82.4296 46.0263 82.679 45.9147C82.9284 45.8032 83.2122 45.7488 83.5275 45.7488C84.0349 45.746 84.4392 45.8947 84.7373 46.1865Z" fill="white"/>
<path d="M90.5224 48.0231H87.2773C87.3231 48.375 87.4779 48.6582 87.7417 48.8699C88.0054 49.0816 88.3351 49.1903 88.7278 49.1903C89.2066 49.1903 89.5907 49.0301 89.8831 48.7068L90.2845 49.1731C90.1039 49.3848 89.8774 49.545 89.6079 49.6566C89.3385 49.7682 89.0374 49.8225 88.7049 49.8225C88.2835 49.8225 87.908 49.7367 87.5812 49.5622C87.2543 49.3877 87.0021 49.1474 86.8215 48.8355C86.6437 48.5237 86.552 48.1718 86.552 47.7799C86.552 47.3937 86.638 47.0447 86.8129 46.7328C86.9877 46.421 87.2257 46.1778 87.5296 46.0062C87.8334 45.8317 88.1774 45.7458 88.5587 45.7458C88.94 45.7458 89.2811 45.8317 89.5821 46.0062C89.8803 46.1807 90.1153 46.421 90.2845 46.7328C90.4536 47.0447 90.5367 47.3994 90.5367 47.8028C90.5396 47.86 90.5339 47.9315 90.5224 48.0231ZM87.6901 46.6728C87.455 46.8845 87.3203 47.1591 87.2801 47.5024H89.8459C89.8057 47.1648 89.6681 46.8902 89.4359 46.6785C89.2008 46.4639 88.9113 46.3581 88.5644 46.3581C88.2147 46.3581 87.9223 46.4639 87.6901 46.6728Z" fill="white"/>
<path d="M92.1162 49.6909C91.8152 49.6022 91.5773 49.4907 91.4053 49.3562L91.7063 48.784C91.8811 48.9099 92.0962 49.0101 92.3484 49.0844C92.6007 49.1588 92.853 49.1989 93.111 49.1989C93.7445 49.1989 94.0627 49.0186 94.0627 48.6553C94.0627 48.5352 94.0197 48.4407 93.9337 48.3692C93.8477 48.2977 93.7417 48.2462 93.6127 48.2147C93.4837 48.1833 93.303 48.1461 93.0651 48.106C92.744 48.0574 92.4803 47.9973 92.2768 47.9315C92.0732 47.8657 91.8983 47.757 91.7521 47.5997C91.6059 47.4452 91.5343 47.2249 91.5343 46.9445C91.5343 46.5841 91.6862 46.2923 91.9872 46.0748C92.2882 45.8574 92.6953 45.7458 93.2027 45.7458C93.4693 45.7458 93.7359 45.7773 94.0025 45.8431C94.2691 45.9089 94.487 45.9976 94.659 46.1063L94.3494 46.6785C94.0226 46.4668 93.6384 46.3609 93.1941 46.3609C92.8874 46.3609 92.6523 46.4124 92.4918 46.5126C92.3312 46.6127 92.251 46.7471 92.251 46.9131C92.251 47.0447 92.2968 47.1477 92.3857 47.222C92.4774 47.2964 92.5892 47.3536 92.7211 47.388C92.853 47.4223 93.0422 47.4623 93.283 47.5081C93.604 47.5625 93.8649 47.6226 94.0627 47.6855C94.2605 47.7484 94.4325 47.8543 94.573 48.0059C94.7135 48.1575 94.7851 48.3664 94.7851 48.6381C94.7851 48.9986 94.6303 49.2876 94.3207 49.4993C94.0111 49.7138 93.5897 49.8197 93.0565 49.8197C92.7326 49.8225 92.4172 49.7768 92.1162 49.6909Z" fill="white"/>
<path d="M96.2671 49.6909C95.9661 49.6022 95.7282 49.4907 95.5562 49.3562L95.8572 48.784C96.032 48.9099 96.247 49.0101 96.4993 49.0844C96.7516 49.1588 97.0038 49.1989 97.2618 49.1989C97.8954 49.1989 98.2136 49.0186 98.2136 48.6553C98.2136 48.5352 98.1706 48.4407 98.0846 48.3692C97.9986 48.2977 97.8925 48.2462 97.7635 48.2147C97.6345 48.1833 97.4539 48.1461 97.216 48.106C96.8949 48.0574 96.6312 47.9973 96.4276 47.9315C96.2241 47.8657 96.0492 47.757 95.903 47.5997C95.7568 47.4452 95.6851 47.2249 95.6851 46.9445C95.6851 46.5841 95.8371 46.2923 96.1381 46.0748C96.4391 45.8574 96.8462 45.7458 97.3536 45.7458C97.6202 45.7458 97.8868 45.7773 98.1534 45.8431C98.42 45.9089 98.6379 45.9976 98.8099 46.1063L98.5003 46.6785C98.1735 46.4668 97.7893 46.3609 97.345 46.3609C97.0382 46.3609 96.8032 46.4124 96.6426 46.5126C96.4821 46.6127 96.4018 46.7471 96.4018 46.9131C96.4018 47.0447 96.4477 47.1477 96.5366 47.222C96.6283 47.2964 96.7401 47.3536 96.872 47.388C97.0038 47.4223 97.193 47.4623 97.4339 47.5081C97.7549 47.5625 98.0158 47.6226 98.2136 47.6855C98.4114 47.7484 98.5834 47.8543 98.7239 48.0059C98.8643 48.1575 98.936 48.3664 98.936 48.6381C98.936 48.9986 98.7812 49.2876 98.4716 49.4993C98.162 49.7138 97.7406 49.8197 97.2074 49.8197C96.8834 49.8225 96.5681 49.7768 96.2671 49.6909Z" fill="white"/>
<path d="M106.252 49.7769L105.111 48.1577C104.971 48.1691 104.859 48.172 104.778 48.172H103.471V49.7769H102.717V44.5044H104.778C105.464 44.5044 106.003 44.6675 106.392 44.9936C106.785 45.3197 106.98 45.7689 106.98 46.341C106.98 46.7473 106.88 47.0934 106.679 47.3795C106.478 47.6656 106.192 47.8745 105.819 48.006L107.072 49.7769H106.252ZM105.853 47.2222C106.106 47.0162 106.232 46.7215 106.232 46.341C106.232 45.9606 106.106 45.6659 105.853 45.4628C105.601 45.2597 105.237 45.1567 104.758 45.1567H103.474V47.5283H104.758C105.237 47.5311 105.601 47.4282 105.853 47.2222Z" fill="white"/>
<path d="M112.074 48.0231H108.829C108.875 48.375 109.03 48.6582 109.294 48.8699C109.557 49.0816 109.887 49.1903 110.28 49.1903C110.759 49.1903 111.143 49.0301 111.435 48.7068L111.836 49.1731C111.656 49.3848 111.429 49.545 111.16 49.6566C110.89 49.7682 110.589 49.8225 110.257 49.8225C109.836 49.8225 109.46 49.7367 109.133 49.5622C108.806 49.3877 108.554 49.1474 108.373 48.8355C108.196 48.5237 108.104 48.1718 108.104 47.7799C108.104 47.3937 108.19 47.0447 108.365 46.7328C108.54 46.421 108.778 46.1778 109.082 46.0062C109.385 45.8317 109.729 45.7458 110.111 45.7458C110.492 45.7458 110.833 45.8317 111.134 46.0062C111.432 46.1807 111.667 46.421 111.836 46.7328C112.006 47.0447 112.089 47.3994 112.089 47.8028C112.089 47.86 112.083 47.9315 112.074 48.0231ZM109.239 46.6728C109.004 46.8845 108.869 47.1591 108.829 47.5024H111.395C111.355 47.1648 111.217 46.8902 110.985 46.6785C110.75 46.4639 110.46 46.3581 110.114 46.3581C109.764 46.3581 109.471 46.4639 109.239 46.6728Z" fill="white"/>
<path d="M117.237 44.1868V49.7768H116.543V49.1446C116.383 49.3649 116.179 49.5337 115.933 49.6481C115.686 49.7625 115.414 49.8226 115.119 49.8226C114.732 49.8226 114.385 49.7368 114.078 49.5651C113.771 49.3935 113.531 49.156 113.359 48.8471C113.184 48.5381 113.098 48.1833 113.098 47.78C113.098 47.3766 113.184 47.0247 113.359 46.7186C113.533 46.4125 113.771 46.175 114.078 46.0034C114.385 45.8317 114.732 45.7459 115.119 45.7459C115.405 45.7459 115.669 45.8003 115.91 45.909C116.151 46.0177 116.351 46.175 116.515 46.3867V44.1868H117.237ZM115.861 49.013C116.068 48.8957 116.228 48.7298 116.343 48.5152C116.457 48.3006 116.518 48.0575 116.518 47.78C116.518 47.5053 116.46 47.2593 116.343 47.0447C116.228 46.8302 116.065 46.6671 115.861 46.5527C115.655 46.4382 115.425 46.3782 115.173 46.3782C114.915 46.3782 114.686 46.4354 114.482 46.5527C114.279 46.6671 114.118 46.833 113.998 47.0447C113.88 47.2593 113.82 47.5025 113.82 47.78C113.82 48.0575 113.88 48.3006 113.998 48.5152C114.115 48.7298 114.276 48.8957 114.482 49.013C114.686 49.1303 114.915 49.1904 115.173 49.1904C115.425 49.1904 115.655 49.1303 115.861 49.013Z" fill="white"/>
<path d="M122.581 48.0231H119.336C119.381 48.375 119.536 48.6582 119.8 48.8699C120.064 49.0816 120.393 49.1903 120.786 49.1903C121.265 49.1903 121.649 49.0301 121.941 48.7068L122.343 49.1731C122.162 49.3848 121.936 49.545 121.666 49.6566C121.397 49.7682 121.096 49.8225 120.763 49.8225C120.342 49.8225 119.966 49.7367 119.639 49.5622C119.313 49.3877 119.06 49.1474 118.88 48.8355C118.702 48.5237 118.61 48.1718 118.61 47.7799C118.61 47.3937 118.696 47.0447 118.871 46.7328C119.046 46.421 119.284 46.1778 119.588 46.0062C119.892 45.8317 120.236 45.7458 120.617 45.7458C120.998 45.7458 121.339 45.8317 121.64 46.0062C121.939 46.1807 122.174 46.421 122.343 46.7328C122.512 47.0447 122.595 47.3994 122.595 47.8028C122.595 47.86 122.589 47.9315 122.581 48.0231ZM119.746 46.6728C119.51 46.8845 119.376 47.1591 119.336 47.5024H121.901C121.861 47.1648 121.724 46.8902 121.491 46.6785C121.256 46.4639 120.967 46.3581 120.62 46.3581C120.27 46.3581 119.981 46.4639 119.746 46.6728Z" fill="white"/>
<path d="M124.785 45.4369V45.7831H125.946V46.3782H124.8V49.7768H124.074V46.3782H123.395V45.7831H124.074V45.4284C124.074 45.0307 124.189 44.7189 124.421 44.4872C124.654 44.2554 124.977 44.141 125.396 44.141C125.557 44.141 125.708 44.161 125.849 44.2011C125.989 44.2411 126.11 44.2983 126.21 44.3756L125.992 44.9249C125.826 44.799 125.64 44.736 125.433 44.736C125 44.7389 124.785 44.9706 124.785 45.4369ZM127.248 44.8819C127.153 44.7904 127.107 44.6817 127.107 44.5501C127.107 44.4185 127.153 44.3069 127.248 44.2154C127.34 44.1238 127.457 44.0752 127.598 44.0752C127.738 44.0752 127.856 44.1181 127.947 44.2068C128.042 44.2955 128.088 44.4042 128.088 44.5358C128.088 44.6702 128.042 44.7847 127.947 44.8791C127.853 44.9735 127.738 45.0193 127.598 45.0193C127.457 45.0164 127.342 44.9706 127.248 44.8819ZM127.236 45.786H127.962V49.7797H127.236V45.786Z" fill="white"/>
<path d="M133.062 46.1865C133.36 46.4812 133.512 46.9103 133.512 47.4796V49.7769H132.786V47.5626C132.786 47.1764 132.692 46.8846 132.508 46.69C132.322 46.4955 132.055 46.3954 131.708 46.3954C131.316 46.3954 131.006 46.5098 130.78 46.7387C130.553 46.9675 130.441 47.2937 130.441 47.7228V49.7797H129.716V45.786H130.41V46.3896C130.556 46.1837 130.754 46.0263 131.003 45.9147C131.253 45.8032 131.536 45.7488 131.852 45.7488C132.356 45.746 132.761 45.8947 133.062 46.1865Z" fill="white"/>
<path d="M138.847 48.0231H135.602C135.647 48.375 135.802 48.6582 136.066 48.8699C136.33 49.0816 136.659 49.1903 137.052 49.1903C137.531 49.1903 137.915 49.0301 138.207 48.7068L138.609 49.1731C138.428 49.3848 138.202 49.545 137.932 49.6566C137.663 49.7682 137.362 49.8225 137.029 49.8225C136.608 49.8225 136.232 49.7367 135.905 49.5622C135.579 49.3877 135.326 49.1474 135.146 48.8355C134.968 48.5237 134.876 48.1718 134.876 47.7799C134.876 47.3937 134.962 47.0447 135.137 46.7328C135.312 46.421 135.55 46.1778 135.854 46.0062C136.158 45.8317 136.502 45.7458 136.883 45.7458C137.264 45.7458 137.605 45.8317 137.906 46.0062C138.204 46.1807 138.44 46.421 138.609 46.7328C138.778 47.0447 138.861 47.3994 138.861 47.8028C138.861 47.86 138.855 47.9315 138.847 48.0231ZM136.011 46.6728C135.776 46.8845 135.642 47.1591 135.602 47.5024H138.167C138.127 47.1648 137.989 46.8902 137.757 46.6785C137.522 46.4639 137.233 46.3581 136.886 46.3581C136.536 46.3581 136.247 46.4639 136.011 46.6728Z" fill="white"/>
<path d="M144.01 44.1868V49.7768H143.316V49.1446C143.155 49.3649 142.952 49.5337 142.705 49.6481C142.459 49.7625 142.186 49.8226 141.891 49.8226C141.504 49.8226 141.157 49.7368 140.851 49.5651C140.544 49.3935 140.303 49.156 140.131 48.8471C139.956 48.5381 139.87 48.1833 139.87 47.78C139.87 47.3766 139.956 47.0247 140.131 46.7186C140.306 46.4125 140.544 46.175 140.851 46.0034C141.157 45.8317 141.504 45.7459 141.891 45.7459C142.178 45.7459 142.442 45.8003 142.682 45.909C142.923 46.0177 143.124 46.175 143.287 46.3867V44.1868H144.01ZM142.636 49.013C142.843 48.8957 143.003 48.7298 143.118 48.5152C143.233 48.3006 143.293 48.0575 143.293 47.78C143.293 47.5053 143.236 47.2593 143.118 47.0447C143.003 46.8302 142.84 46.6671 142.636 46.5527C142.43 46.4382 142.201 46.3782 141.948 46.3782C141.69 46.3782 141.461 46.4354 141.258 46.5527C141.054 46.6671 140.894 46.833 140.773 47.0447C140.656 47.2593 140.595 47.5025 140.595 47.78C140.595 48.0575 140.656 48.3006 140.773 48.5152C140.891 48.7298 141.051 48.8957 141.258 49.013C141.461 49.1303 141.69 49.1904 141.948 49.1904C142.201 49.1904 142.43 49.1303 142.636 49.013Z" fill="white"/>
<path d="M145.563 49.6738C145.463 49.5765 145.411 49.4507 145.411 49.3019C145.411 49.156 145.463 49.0358 145.563 48.9357C145.664 48.8384 145.784 48.7898 145.925 48.7898C146.065 48.7898 146.183 48.8384 146.28 48.9328C146.375 49.0272 146.423 49.1503 146.423 49.3019C146.423 49.4535 146.375 49.5765 146.277 49.6738C146.18 49.7711 146.062 49.8197 145.927 49.8197C145.784 49.8226 145.664 49.7739 145.563 49.6738Z" fill="white"/>
</svg>
