<svg width="91" height="29" viewBox="0 0 91 29" fill="none" xmlns="http://www.w3.org/2000/svg">
<path d="M19.9933 4.8252C14.4868 4.8252 10.021 9.14241 10.021 14.4692C10.021 19.7959 14.4852 24.1132 19.9933 24.1132C25.5014 24.1132 29.9656 19.7959 29.9656 14.4692C29.964 9.14241 25.4998 4.8252 19.9933 4.8252ZM19.9933 21.6034C15.9182 21.6034 12.6162 18.4086 12.6162 14.4692C12.6162 10.5282 15.9198 7.33495 19.9933 7.33495C24.0685 7.33495 27.3704 10.5298 27.3704 14.4692C27.3704 18.4086 24.0669 21.6034 19.9933 21.6034Z" fill="white"/>
<path d="M37.3719 20.3631C36.516 20.1358 35.8336 19.8489 35.323 19.5025L36.3167 17.6009C36.8127 17.9207 37.4092 18.1778 38.1062 18.3722C38.8033 18.5666 39.4889 18.6622 40.1649 18.6622C41.7097 18.6622 42.4829 18.2688 42.4829 17.4818C42.4829 17.1087 42.2868 16.8485 41.8929 16.7011C41.5006 16.5553 40.8684 16.4143 39.9996 16.281C39.0886 16.1478 38.3478 15.9941 37.7756 15.8201C37.2033 15.6477 36.7057 15.3436 36.2859 14.9093C35.8644 14.4767 35.6553 13.8716 35.6553 13.0988C35.6553 12.0845 36.093 11.274 36.9699 10.6674C37.8453 10.0607 39.0286 9.75659 40.5183 9.75659C41.2769 9.75659 42.0355 9.83968 42.7941 10.0074C43.5528 10.1751 44.1736 10.3977 44.6567 10.6784L43.663 12.5799C42.7244 12.0469 41.6692 11.7788 40.4972 11.7788C39.7386 11.7788 39.1631 11.8886 38.7692 12.108C38.3753 12.3291 38.1792 12.6191 38.1792 12.978C38.1792 13.3778 38.3899 13.6615 38.8097 13.8293C39.2312 13.997 39.8828 14.1522 40.7663 14.2995C41.6497 14.4328 42.3727 14.5864 42.9384 14.7604C43.5041 14.9344 43.9904 15.2276 44.3973 15.6414C44.8042 16.0553 45.0084 16.6416 45.0084 17.4019C45.0084 18.402 44.5594 19.2031 43.663 19.8034C42.7666 20.4038 41.5444 20.7048 39.9996 20.7048C39.1031 20.7033 38.2278 20.5904 37.3719 20.3631Z" fill="white"/>
<path d="M46.8289 9.87573H49.416V20.5622H46.8289V9.87573Z" fill="white"/>
<path d="M58.3767 9.75659V12.1378C58.1563 12.097 57.9553 12.0782 57.777 12.0782C56.7703 12.0782 55.9842 12.362 55.4184 12.9294C54.8527 13.4969 54.569 14.3137 54.569 15.3812V20.5637H51.9819V9.87573H54.4442V11.4371C55.1899 10.3162 56.4996 9.75659 58.3767 9.75659Z" fill="white"/>
<path d="M64.428 15.9801L62.5038 17.7406V20.5623H59.9167V6.64185H62.5038V14.679L67.8628 9.87584H70.967L66.3521 14.3592L71.4014 20.5639H68.2551L64.428 15.9801Z" fill="white"/>
<path d="M80.414 10.8868C81.2763 11.6409 81.7075 12.7774 81.7075 14.2995V20.5637H79.2663V19.2626C78.9486 19.7298 78.4963 20.0872 77.9112 20.3333C77.3244 20.5794 76.6176 20.7033 75.7909 20.7033C74.9626 20.7033 74.238 20.5653 73.6188 20.2925C72.9979 20.0198 72.5181 19.6389 72.181 19.1513C71.8422 18.6638 71.6736 18.1136 71.6736 17.5006C71.6736 16.5397 72.0432 15.77 72.7807 15.19C73.5183 14.6099 74.6805 14.3199 76.2675 14.3199H79.1237V14.16C79.1237 13.4123 78.8919 12.8385 78.4299 12.4388C77.9679 12.039 77.2806 11.8384 76.3712 11.8384C75.7504 11.8384 75.1393 11.9324 74.5395 12.119C73.9397 12.3055 73.4324 12.5658 73.019 12.8997L72.0043 11.0781C72.583 10.6517 73.28 10.3241 74.0937 10.0968C74.9075 9.86946 75.7698 9.75659 76.6808 9.75659C78.3067 9.75659 79.5516 10.1328 80.414 10.8868ZM78.0554 18.4522C78.5595 18.1653 78.9145 17.7546 79.1204 17.2216V15.9816H76.4506C74.961 15.9816 74.2153 16.455 74.2153 17.4019C74.2153 17.8549 74.4017 18.2155 74.7745 18.4819C75.1474 18.7484 75.6645 18.8817 76.3258 18.8817C76.9758 18.8817 77.5513 18.739 78.0554 18.4522Z" fill="white"/>
<path d="M46.8289 9.87598H49.416V20.5624H46.8289V9.87598Z" fill="white"/>
<path d="M48.1223 8.92285C48.9889 8.92285 49.6915 8.24346 49.6915 7.40539C49.6915 6.56733 48.9889 5.88794 48.1223 5.88794C47.2557 5.88794 46.5532 6.56733 46.5532 7.40539C46.5532 8.24346 47.2557 8.92285 48.1223 8.92285Z" fill="white"/>
</svg>
