<svg width="188" height="62" viewBox="0 0 188 62" fill="none" xmlns="http://www.w3.org/2000/svg">
<path d="M41.3369 10.3157C29.952 10.3157 20.7187 19.5456 20.7187 30.9338C20.7187 42.3221 29.9486 51.552 41.3369 51.552C52.7251 51.552 61.955 42.3221 61.955 30.9338C61.9517 19.5456 52.7218 10.3157 41.3369 10.3157ZM41.3369 46.1863C32.9113 46.1863 26.0844 39.3561 26.0844 30.9338C26.0844 22.5083 32.9146 15.6814 41.3369 15.6814C49.7624 15.6814 56.5893 22.5116 56.5893 30.9338C56.5893 39.3561 49.7591 46.1863 41.3369 46.1863Z" fill="white"/>
<path d="M77.2679 43.5353C75.4983 43.0494 74.0873 42.4361 73.0316 41.6954L75.0861 37.6301C76.1116 38.3138 77.3449 38.8634 78.7861 39.279C80.2272 39.6946 81.6449 39.899 83.0424 39.899C86.2364 39.899 87.835 39.0578 87.835 37.3754C87.835 36.5777 87.4295 36.0214 86.6151 35.7063C85.804 35.3946 84.4969 35.093 82.7006 34.8081C80.817 34.5233 79.2854 34.1948 78.1024 33.8228C76.9193 33.4541 75.8904 32.804 75.0224 31.8756C74.151 30.9506 73.7187 29.6569 73.7187 28.0047C73.7187 25.8363 74.6236 24.1036 76.4367 22.8066C78.2465 21.5096 80.693 20.8594 83.773 20.8594C85.3415 20.8594 86.91 21.037 88.4785 21.3956C90.047 21.7542 91.3306 22.2301 92.3293 22.83L90.2749 26.8953C88.3344 25.7559 86.1526 25.1828 83.7295 25.1828C82.161 25.1828 80.9712 25.4174 80.1568 25.8866C79.3424 26.3591 78.9369 26.9791 78.9369 27.7466C78.9369 28.6012 79.3726 29.2079 80.2406 29.5665C81.112 29.9251 82.4593 30.2569 84.2858 30.5719C86.1124 30.8568 87.6071 31.1852 88.7768 31.5572C89.9464 31.9292 90.9519 32.556 91.7931 33.4407C92.6343 34.3255 93.0566 35.579 93.0566 37.2044C93.0566 39.3427 92.1282 41.0553 90.2749 42.3389C88.4215 43.6225 85.8945 44.266 82.7006 44.266C80.8472 44.2626 79.0374 44.0213 77.2679 43.5353Z" fill="white"/>
<path d="M96.8203 21.114H102.169V43.9609H96.8203V21.114Z" fill="white"/>
<path d="M120.696 20.8594V25.9502C120.24 25.8631 119.825 25.8229 119.456 25.8229C117.375 25.8229 115.749 26.4295 114.58 27.6427C113.41 28.856 112.823 30.6021 112.823 32.8844V43.9643H107.475V21.1141H112.565V24.4521C114.107 22.0558 116.815 20.8594 120.696 20.8594Z" fill="white"/>
<path d="M133.207 34.1646L129.229 37.9283V43.9609H123.88V14.2H129.229V31.3829L140.309 21.114H146.727L137.185 30.6992L147.625 43.9642H141.12L133.207 34.1646Z" fill="white"/>
<path d="M166.259 23.2758C168.042 24.8878 168.934 27.3176 168.934 30.5719V43.9643H163.886V41.1826C163.229 42.1813 162.294 42.9455 161.084 43.4717C159.871 43.9978 158.41 44.2626 156.701 44.2626C154.988 44.2626 153.49 43.9677 152.21 43.3845C150.926 42.8014 149.934 41.987 149.237 40.9447C148.537 39.9024 148.188 38.726 148.188 37.4156C148.188 35.3611 148.952 33.7156 150.477 32.4755C152.002 31.2355 154.405 30.6155 157.686 30.6155H163.591V30.2736C163.591 28.675 163.112 27.4483 162.157 26.5937C161.202 25.7391 159.781 25.3101 157.901 25.3101C156.617 25.3101 155.353 25.5112 154.113 25.91C152.873 26.3088 151.824 26.8652 150.97 27.579L148.872 23.6847C150.068 22.7731 151.509 22.0726 153.192 21.5866C154.874 21.1007 156.657 20.8594 158.541 20.8594C161.902 20.8594 164.476 21.6637 166.259 23.2758ZM161.383 39.4499C162.425 38.8366 163.159 37.9585 163.585 36.819V34.168H158.065C154.985 34.168 153.443 35.1802 153.443 37.2044C153.443 38.173 153.829 38.9438 154.599 39.5136C155.37 40.0833 156.439 40.3682 157.807 40.3682C159.151 40.3682 160.34 40.0632 161.383 39.4499Z" fill="white"/>
<path d="M96.8203 21.114H102.169V43.9609H96.8203V21.114Z" fill="white"/>
<path d="M99.4947 19.0763C101.286 19.0763 102.739 17.6238 102.739 15.8321C102.739 14.0404 101.286 12.5879 99.4947 12.5879C97.703 12.5879 96.2505 14.0404 96.2505 15.8321C96.2505 17.6238 97.703 19.0763 99.4947 19.0763Z" fill="white"/>
</svg>
