<svg width="16" height="16" viewBox="0 0 16 16" fill="none" xmlns="http://www.w3.org/2000/svg">
<path fill-rule="evenodd" clip-rule="evenodd" d="M13.6693 2.32546C12.9311 1.58603 12.0528 0.999746 11.0854 0.600577C10.118 0.201408 9.08058 -0.00271639 8.03333 2.72955e-05C3.64333 2.72955e-05 0.0666666 3.5572 0.0666666 7.92734C0.0633394 9.31887 0.429971 10.6865 1.12933 11.8913L0 16L4.224 14.8957C5.39199 15.5291 6.70062 15.8615 8.03067 15.8626H8.034C12.4247 15.8626 15.9973 12.3061 16 7.93265C16 5.81494 15.172 3.82399 13.6693 2.3248V2.32546ZM8.03333 14.5227H8.03067C6.84504 14.5227 5.68117 14.2057 4.66067 13.6049L4.41867 13.4622L1.91067 14.1159L2.58 11.6836L2.424 11.4347C1.7604 10.3843 1.40908 9.16826 1.41067 7.92734C1.41067 4.29584 4.382 1.3406 8.036 1.3406C8.90561 1.33844 9.76701 1.50802 10.5703 1.83951C11.3737 2.17101 12.103 2.65784 12.716 3.27183C13.3321 3.88287 13.8204 4.60936 14.1528 5.40934C14.4852 6.20932 14.6551 7.06694 14.6527 7.93265C14.6527 11.5675 11.6813 14.5227 8.03267 14.5227H8.03333ZM11.6633 9.58647C11.4653 9.48825 10.486 9.0091 10.304 8.94406C10.122 8.87636 9.98867 8.84517 9.856 9.04228C9.72267 9.24137 9.34267 9.68801 9.226 9.82008C9.11133 9.94949 8.994 9.96807 8.796 9.86919C8.596 9.77097 7.95533 9.56059 7.19467 8.88433C6.60333 8.36004 6.20267 7.70967 6.088 7.51256C5.97067 7.31347 6.07467 7.20728 6.174 7.10773C6.26467 7.02013 6.374 6.87745 6.47333 6.76064C6.572 6.64716 6.60667 6.5642 6.67333 6.43147C6.73867 6.29941 6.70533 6.1826 6.65533 6.08438C6.606 5.98616 6.208 5.00861 6.04133 4.61174C5.87933 4.2255 5.71533 4.27992 5.59333 4.27261C5.47867 4.26731 5.346 4.26731 5.21333 4.26731C5.08 4.26731 4.864 4.31642 4.68133 4.51618C4.49933 4.71328 3.986 5.1931 3.986 6.16734C3.986 7.14224 4.69933 8.08529 4.79933 8.21802C4.898 8.34743 6.20267 10.3483 8.19933 11.2071C8.674 11.4115 9.04333 11.5336 9.33267 11.6245C9.80933 11.7745 10.244 11.754 10.588 11.7042C10.9707 11.6478 11.7647 11.225 11.9313 10.7611C12.096 10.2999 12.096 9.90304 12.046 9.82008C11.9967 9.73712 11.864 9.68735 11.6633 9.58647Z" fill="white"/>
</svg>
